<mxfile host="app.diagrams.net" modified="2023-07-28T03:05:11.770Z" agent="Mozilla/5.0 (Windows NT 10.0; Win64; x64) AppleWebKit/537.36 (KHTML, like Gecko) Chrome/114.0.0.0 Safari/537.36" etag="mpWDSABKu_7g5zASwCyo" version="21.6.5" type="github">
  <diagram name="Page-1" id="LOGe5GBcDBh1mAJ9t0Eh">
    <mxGraphModel dx="988" dy="685" grid="1" gridSize="10" guides="1" tooltips="1" connect="1" arrows="1" fold="1" page="1" pageScale="1" pageWidth="827" pageHeight="1169" math="0" shadow="0">
      <root>
        <mxCell id="0" />
        <mxCell id="1" parent="0" />
        <mxCell id="C99cIZ5OWCIX-Rf5DpSp-2" value="&lt;ul&gt;&lt;li&gt;&lt;p&gt;基础数据：&lt;/p&gt;&lt;/li&gt;&lt;li&gt;&lt;ul style=&quot;border-color: var(--border-color);&quot;&gt;&lt;li style=&quot;border-color: var(--border-color);&quot;&gt;&lt;p style=&quot;border-color: var(--border-color);&quot;&gt;评价期&lt;/p&gt;&lt;/li&gt;&lt;li style=&quot;border-color: var(--border-color);&quot;&gt;&lt;p style=&quot;border-color: var(--border-color);&quot;&gt;生产能力(销售产能)&lt;/p&gt;&lt;/li&gt;&lt;li style=&quot;border-color: var(--border-color);&quot;&gt;&lt;p style=&quot;border-color: var(--border-color);&quot;&gt;财务贴现率&lt;/p&gt;&lt;/li&gt;&lt;/ul&gt;&lt;/li&gt;&lt;/ul&gt;" style="text;whiteSpace=wrap;html=1;fillColor=#eeeeee;strokeColor=#36393d;" parent="1" vertex="1">
          <mxGeometry x="40" y="120" width="190" height="120" as="geometry" />
        </mxCell>
        <mxCell id="3Su2aN2kJ7Bb-llSMdtb-1" value="现金流量表" style="text;strokeColor=#36393d;align=center;fillColor=#eeeeee;html=1;verticalAlign=middle;whiteSpace=wrap;rounded=0;" vertex="1" parent="1">
          <mxGeometry x="90" y="330" width="80" height="30" as="geometry" />
        </mxCell>
        <mxCell id="3Su2aN2kJ7Bb-llSMdtb-6" style="edgeStyle=orthogonalEdgeStyle;rounded=0;orthogonalLoop=1;jettySize=auto;html=1;exitX=1;exitY=0.5;exitDx=0;exitDy=0;entryX=0;entryY=0.5;entryDx=0;entryDy=0;" edge="1" parent="1" source="3Su2aN2kJ7Bb-llSMdtb-3" target="3Su2aN2kJ7Bb-llSMdtb-4">
          <mxGeometry relative="1" as="geometry">
            <mxPoint x="260" y="545" as="targetPoint" />
            <Array as="points">
              <mxPoint x="250" y="540" />
              <mxPoint x="250" y="540" />
            </Array>
          </mxGeometry>
        </mxCell>
        <mxCell id="3Su2aN2kJ7Bb-llSMdtb-3" value="资本金现金流量表" style="text;strokeColor=#36393d;align=center;fillColor=#eeeeee;html=1;verticalAlign=middle;whiteSpace=wrap;rounded=0;" vertex="1" parent="1">
          <mxGeometry x="65" y="525" width="130" height="30" as="geometry" />
        </mxCell>
        <mxCell id="3Su2aN2kJ7Bb-llSMdtb-4" value="&lt;div&gt;&lt;ul&gt;&lt;li&gt;&lt;p&gt;资本金财务内部收益率&lt;/p&gt;&lt;/li&gt;&lt;/ul&gt;&lt;/div&gt;" style="text;whiteSpace=wrap;html=1;fillColor=#eeeeee;strokeColor=#36393d;" vertex="1" parent="1">
          <mxGeometry x="280" y="510" width="220" height="60" as="geometry" />
        </mxCell>
        <mxCell id="3Su2aN2kJ7Bb-llSMdtb-8" value="静态指标" style="text;html=1;align=center;verticalAlign=middle;resizable=0;points=[];autosize=1;strokeColor=#36393d;fillColor=#eeeeee;" vertex="1" parent="1">
          <mxGeometry x="280" y="260" width="70" height="30" as="geometry" />
        </mxCell>
        <mxCell id="3Su2aN2kJ7Bb-llSMdtb-9" value="&lt;ul style=&quot;border-color: var(--border-color); color: rgb(0, 0, 0); font-family: Helvetica; font-size: 12px; font-style: normal; font-variant-ligatures: normal; font-variant-caps: normal; font-weight: 400; letter-spacing: normal; orphans: 2; text-align: left; text-indent: 0px; text-transform: none; widows: 2; word-spacing: 0px; -webkit-text-stroke-width: 0px; background-color: rgb(251, 251, 251); text-decoration-thickness: initial; text-decoration-style: initial; text-decoration-color: initial;&quot;&gt;&lt;li style=&quot;border-color: var(--border-color);&quot;&gt;&lt;p style=&quot;border-color: var(--border-color);&quot;&gt;内部收益率&lt;/p&gt;&lt;/li&gt;&lt;li style=&quot;border-color: var(--border-color);&quot;&gt;&lt;p style=&quot;border-color: var(--border-color);&quot;&gt;净现值&lt;/p&gt;&lt;/li&gt;&lt;li style=&quot;border-color: var(--border-color);&quot;&gt;&lt;p style=&quot;border-color: var(--border-color);&quot;&gt;投资回收期&lt;/p&gt;&lt;/li&gt;&lt;/ul&gt;" style="text;whiteSpace=wrap;html=1;fillColor=#eeeeee;strokeColor=#36393d;" vertex="1" parent="1">
          <mxGeometry x="440" y="360" width="140" height="110" as="geometry" />
        </mxCell>
        <mxCell id="3Su2aN2kJ7Bb-llSMdtb-12" style="edgeStyle=orthogonalEdgeStyle;rounded=0;orthogonalLoop=1;jettySize=auto;html=1;exitX=1;exitY=0.5;exitDx=0;exitDy=0;entryX=0;entryY=0.5;entryDx=0;entryDy=0;" edge="1" parent="1" source="3Su2aN2kJ7Bb-llSMdtb-10">
          <mxGeometry relative="1" as="geometry">
            <mxPoint x="440" y="415" as="targetPoint" />
          </mxGeometry>
        </mxCell>
        <mxCell id="3Su2aN2kJ7Bb-llSMdtb-10" value="动态指标" style="whiteSpace=wrap;html=1;fillColor=#eeeeee;strokeColor=#36393d;" vertex="1" parent="1">
          <mxGeometry x="280" y="400" width="70" height="30" as="geometry" />
        </mxCell>
        <mxCell id="3Su2aN2kJ7Bb-llSMdtb-11" value="" style="endArrow=classic;html=1;rounded=0;exitX=1;exitY=0.5;exitDx=0;exitDy=0;entryX=0;entryY=0.5;entryDx=0;entryDy=0;" edge="1" parent="1" source="3Su2aN2kJ7Bb-llSMdtb-1" target="3Su2aN2kJ7Bb-llSMdtb-10">
          <mxGeometry width="50" height="50" relative="1" as="geometry">
            <mxPoint x="390" y="380" as="sourcePoint" />
            <mxPoint x="440" y="330" as="targetPoint" />
          </mxGeometry>
        </mxCell>
        <mxCell id="3Su2aN2kJ7Bb-llSMdtb-18" value="" style="endArrow=classic;html=1;rounded=0;entryX=0;entryY=0.667;entryDx=0;entryDy=0;entryPerimeter=0;" edge="1" parent="1" target="3Su2aN2kJ7Bb-llSMdtb-8">
          <mxGeometry width="50" height="50" relative="1" as="geometry">
            <mxPoint x="170" y="350" as="sourcePoint" />
            <mxPoint x="220" y="300" as="targetPoint" />
          </mxGeometry>
        </mxCell>
        <mxCell id="3Su2aN2kJ7Bb-llSMdtb-23" style="edgeStyle=orthogonalEdgeStyle;rounded=0;orthogonalLoop=1;jettySize=auto;html=1;exitX=1;exitY=0.5;exitDx=0;exitDy=0;entryX=0;entryY=0.5;entryDx=0;entryDy=0;" edge="1" parent="1">
          <mxGeometry relative="1" as="geometry">
            <mxPoint x="350" y="274.5" as="sourcePoint" />
            <mxPoint x="440" y="274.5" as="targetPoint" />
          </mxGeometry>
        </mxCell>
        <mxCell id="3Su2aN2kJ7Bb-llSMdtb-24" value="&lt;ul&gt;&lt;li&gt;&lt;p&gt;总投资收益率&lt;/p&gt;&lt;/li&gt;&lt;li&gt;&lt;p&gt;投资利润率&lt;/p&gt;&lt;/li&gt;&lt;li&gt;&lt;p&gt;资本金净利润率&lt;/p&gt;&lt;/li&gt;&lt;/ul&gt;" style="text;whiteSpace=wrap;html=1;fillColor=#eeeeee;strokeColor=#36393d;" vertex="1" parent="1">
          <mxGeometry x="440" y="220" width="140" height="100" as="geometry" />
        </mxCell>
        <mxCell id="3Su2aN2kJ7Bb-llSMdtb-30" value="" style="verticalLabelPosition=bottom;verticalAlign=top;html=1;shape=mxgraph.flowchart.summing_function;" vertex="1" parent="1">
          <mxGeometry x="100" y="255" width="40" height="40" as="geometry" />
        </mxCell>
        <mxCell id="3Su2aN2kJ7Bb-llSMdtb-31" value="&lt;div&gt;&lt;ul&gt;&lt;li&gt;&lt;p&gt;总成本费用表&lt;/p&gt;&lt;/li&gt;&lt;/ul&gt;&lt;/div&gt;" style="text;whiteSpace=wrap;html=1;fillColor=#eeeeee;strokeColor=#36393d;" vertex="1" parent="1">
          <mxGeometry x="80" y="680" width="150" height="60" as="geometry" />
        </mxCell>
      </root>
    </mxGraphModel>
  </diagram>
</mxfile>
